<svg xmlns="http://www.w3.org/2000/svg">
    <symbol id="search" viewBox="0 0 24 24" fill="none" xmlns="http://www.w3.org/2000/svg">
        <path stroke="currentColor" stroke-linecap="round" stroke-linejoin="round" stroke-width="2" d="m21 21-4.343-4.343m0 0A8 8 0 1 0 5.343 5.343a8 8 0 0 0 11.314 11.314Z"/>
    </symbol>
    <symbol id="ring" viewBox="0 0 24 24" fill="none" xmlns="http://www.w3.org/2000/svg">
        <path d="M5.81186 8.93778C5.81186 5.52036 8.58222 2.75 11.9996 2.75C15.417 2.75 18.1874 5.52036 18.1874 8.93777V13.3385C18.1874 13.4575 18.2086 13.5754 18.2501 13.6869L19.2989 16.5088C19.5417 17.1621 19.0585 17.8572 18.3615 17.8572H5.63773C4.94076 17.8572 4.45756 17.1621 4.70038 16.5088L5.74921 13.6869C5.79064 13.5754 5.81186 13.4575 5.81186 13.3385V8.93778Z" stroke="currentColor" stroke-width="2"/>
        <path d="M15.1673 17.8574V18.0834C15.1673 19.8323 13.7496 21.2501 12.0007 21.2501C10.2517 21.2501 8.83398 19.8323 8.83398 18.0834V17.8574" stroke="currentColor" stroke-width="2"/>
    </symbol>
    <symbol id="mail" viewBox="0 0 24 24" fill="none" xmlns="http://www.w3.org/2000/svg">
        <path d="M17.8037 8.85156L12.6702 13.0231C12.3028 13.3216 11.7763 13.3216 11.4089 13.0231L6.27539 8.85156" stroke="currentColor" stroke-width="2" stroke-linecap="round"/>
        <rect x="2" y="3" width="20" height="18" rx="2" stroke="currentColor" stroke-width="2" stroke-linecap="square"/>
    </symbol>
    <symbol id="chevron-down" viewBox="0 0 14 8" fill="none" xmlns="http://www.w3.org/2000/svg">
        <path d="M1 1L6.29289 6.29289C6.68342 6.68342 7.31658 6.68342 7.70711 6.29289L13 1" stroke="currentColor" stroke-width="2"/>
    </symbol>
    <symbol id="lock" viewBox="0 0 24 24" fill="none" xmlns="http://www.w3.org/2000/svg">
        <path d="M8 11V7.88889C8 6.85749 8.42143 5.86834 9.17157 5.13903C9.92172 4.40972 10.9391 4 12 4C13.0609 4 14.0783 4.40972 14.8284 5.13903C15.5786 5.86834 16 6.85749 16 7.88889V11" stroke="currentColor" stroke-width="2" stroke-linecap="round" stroke-linejoin="round"/>
        <path d="M5 12C5 11.4477 5.44772 11 6 11H18C18.5523 11 19 11.4477 19 12V20C19 20.5523 18.5523 21 18 21H6C5.44772 21 5 20.5523 5 20V12Z" stroke="currentColor" stroke-width="2" stroke-linecap="round" stroke-linejoin="round"/>
    </symbol>
    <symbol id="case" viewBox="0 0 24 24" fill="none" xmlns="http://www.w3.org/2000/svg">
        <path fill-rule="evenodd" clip-rule="evenodd" d="M10 3H14C15.1046 3 16 3.89543 16 5V6H20C21.1046 6 22 6.89543 22 8V19C22 20.1046 21.1046 21 20 21H4C2.89543 21 2 20.1046 2 19V8C2 6.89543 2.89543 6 4 6H8V5C8 3.89543 8.89543 3 10 3ZM4 7.99997V13H20V7.99997H4ZM4 19V15H11V16H13V15H20V19H4ZM14 5V6H10V5H14Z" fill="currentColor"/>
    </symbol>
    <symbol id="add" viewBox="0 0 24 24" fill="none" xmlns="http://www.w3.org/2000/svg">
        <path d="M8 12H12M12 12H16M12 12V16M12 12V8" stroke="currentColor" stroke-width="2" stroke-linecap="round" stroke-linejoin="round"/>
        <circle cx="12" cy="12" r="9" stroke="currentColor" stroke-width="2" stroke-linecap="round" stroke-linejoin="round"/>
    </symbol>
    <symbol id="logout" viewBox="0 0 24 24" fill="none" xmlns="http://www.w3.org/2000/svg">
        <path d="M21 12L9 12" stroke="currentColor" stroke-width="2" stroke-linecap="round"/>
        <path d="M18.2305 8.72461L20.8083 11.291C21.2009 11.6818 21.201 12.3173 20.8084 12.7083L18.2305 15.2757" stroke="currentColor" stroke-width="2" stroke-linecap="round"/>
        <path d="M15.0039 16.625L15.0039 20.25C15.0039 20.8023 14.5562 21.25 14.0039 21.25L5.47997 21.25C4.92769 21.25 4.47997 20.8023 4.47997 20.25L4.47997 3.75C4.47997 3.19772 4.92769 2.75 5.47997 2.75L14.0039 2.75C14.5562 2.75 15.0039 3.19772 15.0039 3.75L15.0039 7.375" stroke="currentColor" stroke-width="2" stroke-linecap="round"/>
    </symbol>
    <symbol id="sun" viewBox="0 0 24 24" fill="none" xmlns="http://www.w3.org/2000/svg">
        <path d="M12 17C14.7614 17 17 14.7614 17 12C17 9.23858 14.7614 7 12 7C9.23858 7 7 9.23858 7 12C7 14.7614 9.23858 17 12 17Z" stroke="currentColor" stroke-width="2" stroke-linecap="round" stroke-linejoin="round"/>
        <path d="M12 2V4" stroke="currentColor" stroke-width="2" stroke-linecap="round" stroke-linejoin="round"/>
        <path d="M12 20V22" stroke="currentColor" stroke-width="2" stroke-linecap="round" stroke-linejoin="round"/>
        <path d="M5 5L6 6" stroke="currentColor" stroke-width="2" stroke-linecap="round" stroke-linejoin="round"/>
        <path d="M18 18L19 19" stroke="currentColor" stroke-width="2" stroke-linecap="round" stroke-linejoin="round"/>
        <path d="M2 12H4" stroke="currentColor" stroke-width="2" stroke-linecap="round" stroke-linejoin="round"/>
        <path d="M20 12H22" stroke="currentColor" stroke-width="2" stroke-linecap="round" stroke-linejoin="round"/>
        <path d="M5 19L6 18" stroke="currentColor" stroke-width="2" stroke-linecap="round" stroke-linejoin="round"/>
        <path d="M18 6L19 5" stroke="currentColor" stroke-width="2" stroke-linecap="round" stroke-linejoin="round"/>
    </symbol>
    <symbol id="important" viewBox="0 0 20 21" fill="none" xmlns="http://www.w3.org/2000/svg">
        <path d="M8.57465 3.71635L1.51632 15.4997C1.37079 15.7517 1.29379 16.0374 1.29298 16.3284C1.29216 16.6195 1.36756 16.9056 1.51167 17.1585C1.65579 17.4113 1.86359 17.622 2.11441 17.7696C2.36523 17.9171 2.65032 17.9965 2.94132 17.9997H17.058C17.349 17.9965 17.6341 17.9171 17.8849 17.7696C18.1357 17.622 18.3435 17.4113 18.4876 17.1585C18.6317 16.9056 18.7071 16.6195 18.7063 16.3284C18.7055 16.0374 18.6285 15.7517 18.483 15.4997L11.4247 3.71635C11.2761 3.47144 11.0669 3.26895 10.8173 3.12842C10.5677 2.98789 10.2861 2.91406 9.99965 2.91406C9.71321 2.91406 9.43159 2.98789 9.18199 3.12842C8.93238 3.26895 8.72321 3.47144 8.57465 3.71635V3.71635Z" stroke="currentColor" stroke-width="2" stroke-linecap="round" stroke-linejoin="round"/>
        <path d="M10 8V11.3333" stroke="currentColor" stroke-width="2" stroke-linecap="round" stroke-linejoin="round"/>
        <path d="M10 14.667H10.0083" stroke="currentColor" stroke-width="2" stroke-linecap="round" stroke-linejoin="round"/>
    </symbol>
    <symbol id="cart" viewBox="0 0 21 20" fill="none" xmlns="http://www.w3.org/2000/svg">
        <path fill-rule="evenodd" clip-rule="evenodd" d="M4.55671 2.03055C4.37974 2.03016 4.20915 2.05019 4.04704 2.08827C3.82482 1.59849 3.53129 1.15907 3.19744 0.825218C2.6308 0.258576 1.73712 0.0351562 0.5 0.0351562V2.02801C1.25574 2.02801 1.69063 2.13674 1.78828 2.23438C2.1649 2.611 2.49286 3.37624 2.49286 4.02087L2.50287 4.16179L3.47924 10.9964C1.84553 11.0811 0.579911 12.3498 0.501224 13.9358L0.5 14.9816C0.596475 16.6196 1.85789 17.8797 3.43273 17.9693L3.65894 17.9696C4.06894 19.1313 5.17655 19.9637 6.47857 19.9637C7.78012 19.9637 8.88739 19.1319 9.29776 17.9709H11.6308C12.0412 19.1319 13.1484 19.9637 14.45 19.9637C16.1009 19.9637 17.4393 18.6254 17.4393 16.9744C17.4393 15.3235 16.1009 13.9852 14.45 13.9852C13.1484 13.9852 12.0412 14.817 11.6308 15.978H9.29776C8.88739 14.817 7.78012 13.9852 6.47857 13.9852C5.17702 13.9852 4.06975 14.817 3.65938 15.978H3.48929C2.98112 15.9475 2.52528 15.4922 2.49107 14.9219L2.49286 13.9852C2.51973 13.4683 2.97245 13.0156 3.53866 12.9875L5.50575 12.988L5.52001 12.9887H15.5629L15.7099 12.9421C16.4654 12.7023 17.0703 12.1334 17.3566 11.397L17.8026 10.5135C18.1555 9.81402 18.5083 9.11337 18.8522 8.42887C19.6944 6.75215 20.2241 5.68656 20.3414 5.42489C20.9438 4.08111 19.7235 3.04682 18.4763 3.0248L4.55671 2.03055ZM15.2167 10.9959H5.59461C5.53063 10.9781 5.48187 10.9239 5.47233 10.8564L4.49593 4.0216L18.3295 5.01224C18.0874 5.50587 17.6474 6.38754 17.0714 7.53436L17.0569 7.5631C16.7281 8.21768 16.3757 8.91737 16.0234 9.61589L15.5536 10.5463L15.505 10.6593C15.4529 10.8043 15.3496 10.9235 15.2167 10.9959ZM14.45 17.9709C15.0003 17.9709 15.4464 17.5248 15.4464 16.9744C15.4464 16.4241 15.0003 15.978 14.45 15.978C13.8997 15.978 13.4536 16.4241 13.4536 16.9744C13.4536 17.5248 13.8997 17.9709 14.45 17.9709ZM7.475 16.9744C7.475 17.5248 7.02888 17.9709 6.47857 17.9709C5.92826 17.9709 5.48214 17.5248 5.48214 16.9744C5.48214 16.4241 5.92826 15.978 6.47857 15.978C7.02888 15.978 7.475 16.4241 7.475 16.9744Z" fill="currentColor"/>
    </symbol>
    <symbol id="cart" viewBox="0 0 24 24" fill="none" xmlns="http://www.w3.org/2000/svg">
        <path fill-rule="evenodd" clip-rule="evenodd" d="M6.05671 4.03152C5.87974 4.03114 5.70915 4.05117 5.54704 4.08925C5.32482 3.59946 5.03129 3.16005 4.69744 2.82619C4.1308 2.25955 3.23712 2.03613 2 2.03613V4.02899C2.75574 4.02899 3.19063 4.13771 3.28828 4.23536C3.6649 4.61198 3.99286 5.37722 3.99286 6.02185L4.00287 6.16276L4.97924 12.9974C3.34553 13.0821 2.07991 14.3508 2.00122 15.9368L2 16.9826C2.09648 18.6206 3.35789 19.8807 4.93273 19.9702L5.15894 19.9706C5.56894 21.1323 6.67655 21.9647 7.97857 21.9647C9.28012 21.9647 10.3874 21.1329 10.7978 19.9718H13.1308C13.5412 21.1329 14.6484 21.9647 15.95 21.9647C17.6009 21.9647 18.9393 20.6264 18.9393 18.9754C18.9393 17.3245 17.6009 15.9861 15.95 15.9861C14.6484 15.9861 13.5412 16.818 13.1308 17.979H10.7978C10.3874 16.818 9.28012 15.9861 7.97857 15.9861C6.67702 15.9861 5.56975 16.818 5.15938 17.979H4.98929C4.48112 17.9485 4.02528 17.4931 3.99107 16.9229L3.99286 15.9861C4.01973 15.4693 4.47245 15.0166 5.03866 14.9885L7.00575 14.989L7.02001 14.9897H17.0629L17.2099 14.943C17.9654 14.7033 18.5703 14.1344 18.8566 13.3979L19.3026 12.5144C19.6555 11.815 20.0083 11.1143 20.3522 10.4298C21.1944 8.75313 21.7241 7.68754 21.8414 7.42587C22.4438 6.08208 21.2235 5.0478 19.9763 5.02578L6.05671 4.03152ZM16.7167 12.9968H7.09461C7.03063 12.9791 6.98187 12.9249 6.97233 12.8574L5.99593 6.02258L19.8295 7.01322C19.5874 7.50684 19.1474 8.38852 18.5714 9.53534L18.5569 9.56408C18.2281 10.2187 17.8757 10.9183 17.5234 11.6169L17.0536 12.5473L17.005 12.6603C16.9529 12.8053 16.8496 12.9245 16.7167 12.9968ZM15.95 19.9718C16.5003 19.9718 16.9464 19.5257 16.9464 18.9754C16.9464 18.4251 16.5003 17.979 15.95 17.979C15.3997 17.979 14.9536 18.4251 14.9536 18.9754C14.9536 19.5257 15.3997 19.9718 15.95 19.9718ZM8.975 18.9754C8.975 19.5257 8.52888 19.9718 7.97857 19.9718C7.42826 19.9718 6.98214 19.5257 6.98214 18.9754C6.98214 18.4251 7.42826 17.979 7.97857 17.979C8.52888 17.979 8.975 18.4251 8.975 18.9754Z" fill="currentColor"/>
    </symbol>
    <symbol id="key" viewBox="0 0 20 20" fill="none" xmlns="http://www.w3.org/2000/svg">
        <path d="M11 7C11 8.10457 11.8954 9 13 9C14.1046 9 15 8.10457 15 7C15 5.89543 14.1046 5 13 5C11.8954 5 11 5.89543 11 7Z" fill="currentColor"/>
        <path fill-rule="evenodd" clip-rule="evenodd" d="M6 7C6 3.13401 9.13401 0 13 0C16.866 0 20 3.13401 20 7C20 10.866 16.866 14 13 14H11V16H9V18H7V20H0V14.5858L6.14801 8.43778C6.04995 7.96847 6 7.48731 6 7ZM9 14V12H13C15.7614 12 18 9.76142 18 7C18 4.23858 15.7614 2 13 2C10.2386 2 8 4.23858 8 7C8 7.49863 8.07269 7.98638 8.21408 8.45287L8.38789 9.02633L2 15.4142V18H5V16H7V14H9Z" fill="currentColor"/>
    </symbol>
    <symbol id="close-xs" viewBox="0 0 24 24" fill="none" xmlns="http://www.w3.org/2000/svg">
        <path d="M16 16L8 8" stroke="currentColor" stroke-width="2" stroke-linecap="round" stroke-linejoin="round"/>
        <path d="M16 8L8 16" stroke="currentColor" stroke-width="2" stroke-linecap="round" stroke-linejoin="round"/>
    </symbol>
    <symbol id="close-sm" viewBox="0 0 24 24" fill="none" xmlns="http://www.w3.org/2000/svg">
        <path d="M7 7L17 17M7 17L17 7" stroke="currentColor" stroke-width="2" stroke-linecap="round" stroke-linejoin="round"/>
    </symbol>
    <symbol id="close" fill="none" xmlns="http://www.w3.org/2000/svg">
        <path d="M18 18L6 6" stroke="currentColor" stroke-width="2" stroke-linecap="round" stroke-linejoin="round"/>
        <path d="M18 6L6 18" stroke="currentColor" stroke-width="2" stroke-linecap="round" stroke-linejoin="round"/>
    </symbol>
</svg>
