<svg xmlns="http://www.w3.org/2000/svg" width="24" height="24" fill="none" viewBox="0 0 24 24">
  <g class="Store / Shopping_Cart">
    <path fill="#6563FF" d="M3 3a1 1 0 0 0 0 2V3Zm2 1 .996-.09A1 1 0 0 0 5 3v1Zm16 3 .99.141A1 1 0 0 0 21 6v1ZM5.273 7l-.996.09.996-.09Zm2.684 7.86-.072-.997.072.997ZM3 5h2V3H3v2Zm5.028 10.858 10.434-.746-.142-1.995-10.435.746.143 1.995Zm13.19-3.314.772-5.403-1.98-.282-.772 5.402 1.98.283ZM4.004 4.091l.273 3 1.992-.182-.273-3-1.992.182Zm.273 3 .55 6.046 1.991-.181-.55-6.047-1.991.182ZM21 6H5.273v2H21V6Zm-2.538 9.112a3 3 0 0 0 2.756-2.568l-1.98-.283a1 1 0 0 1-.918.857l.142 1.994Zm-10.577-1.25a1 1 0 0 1-1.067-.906l-1.991.18a3 3 0 0 0 3.2 2.722l-.142-1.995Z" class="Vector"/>
    <path stroke="currentColor" stroke-linecap="round" stroke-linejoin="round" stroke-width="2" d="M9 20a1 1 0 1 0 0-2 1 1 0 0 0 0 2ZM17 20a1 1 0 1 0 0-2 1 1 0 0 0 0 2Z" class="Vector"/>
  </g>
</svg>
