<svg xmlns="http://www.w3.org/2000/svg" width="24" height="24" fill="none" viewBox="0 0 24 24">
  <g class="Communication / Chat_Circle">
    <path fill="#6563FF" d="m7.185 19.605.536-.844a1 1 0 0 0-.852-.105l.316.949ZM3 21l-.949-.316a1 1 0 0 0 1.265 1.265L3 21Zm1.395-4.185.949.316a1 1 0 0 0-.105-.852l-.844.536ZM12 22c5.523 0 10-4.477 10-10h-2a8 8 0 0 1-8 8v2Zm-5.35-1.55A9.958 9.958 0 0 0 12 22v-2a7.958 7.958 0 0 1-4.28-1.24l-1.07 1.69Zm.219-1.794-4.185 1.395.632 1.898 4.185-1.395-.632-1.898Zm-2.92 2.66 1.395-4.185-1.898-.632-1.395 4.185 1.898.632ZM2 12c0 1.966.569 3.803 1.55 5.35l1.69-1.07A7.958 7.958 0 0 1 4 12H2ZM12 2C6.477 2 2 6.477 2 12h2a8 8 0 0 1 8-8V2Zm10 10c0-5.523-4.477-10-10-10v2a8 8 0 0 1 8 8h2Z" class="Vector"/>
  </g>
</svg>
