<svg xmlns="http://www.w3.org/2000/svg" width="24" height="24" fill="none" viewBox="0 0 24 24">
  <g class="Frame 37195">
    <path fill="#6563FF" fill-rule="evenodd" d="M6.057 4.031c-.177 0-.348.02-.51.058a4.328 4.328 0 0 0-.85-1.263c-.566-.567-1.46-.79-2.697-.79v1.993c.756 0 1.19.108 1.288.206.377.376.705 1.142.705 1.786l.01.141.976 6.835c-1.633.085-2.9 1.353-2.978 2.94L2 16.981c.096 1.638 1.358 2.898 2.933 2.988h.226a2.99 2.99 0 0 0 5.639.001h2.333a2.99 2.99 0 1 0 0-1.992h-2.333a2.99 2.99 0 0 0-5.639 0h-.17c-.508-.031-.964-.486-.998-1.057l.002-.936c.027-.517.48-.97 1.046-.998h1.967l.014.001h10.043l.147-.046a2.615 2.615 0 0 0 1.647-1.546l.446-.883 1.05-2.085c.841-1.676 1.371-2.742 1.488-3.004.603-1.343-.617-2.378-1.865-2.4l-13.92-.994Zm10.66 8.965H7.095a.17.17 0 0 1-.123-.14l-.976-6.834 13.833.99c-.242.494-.682 1.376-1.258 2.523l-.014.029c-.329.654-.681 1.354-1.034 2.052l-.47.93-.048.114a.623.623 0 0 1-.288.336Zm-.767 6.975a.996.996 0 1 0 0-1.993.996.996 0 0 0 0 1.993Zm-6.975-.996a.997.997 0 1 1-1.993 0 .997.997 0 0 1 1.993 0Z" class="icon" clip-rule="evenodd"/>
  </g>
</svg>
