<svg xmlns="http://www.w3.org/2000/svg" width="24" height="24" fill="none" viewBox="0 0 24 24">
  <g class="Frame 37256">
    <path fill="#6563FF" d="M6.4 20h10.185a2.4 2.4 0 0 0 2.36-1.968l1.016-5.6A2.4 2.4 0 0 0 17.6 9.6h-3.648l.447-1.144A3.304 3.304 0 0 0 11.288 4a.8.8 0 0 0-.728.472L8.28 9.6H6.4A2.4 2.4 0 0 0 4 12v5.6A2.4 2.4 0 0 0 6.4 20Zm3.2-9.432 2.176-4.896a1.704 1.704 0 0 1 1.104 2.224l-.424 1.144a1.601 1.601 0 0 0 1.497 2.16H17.6a.803.803 0 0 1 .616.288.799.799 0 0 1 .184.656l-1.016 5.6a.8.8 0 0 1-.8.656H9.6v-7.832ZM5.6 12a.8.8 0 0 1 .8-.8H8v7.2H6.4a.8.8 0 0 1-.8-.8V12Z" class="Vector"/>
  </g>
</svg>
