<svg xmlns="http://www.w3.org/2000/svg" width="24" height="24" fill="none" viewBox="0 0 24 24">
  <g class="Frame 37257">
    <path fill="#6563FF" d="M17.6 4H7.415a2.4 2.4 0 0 0-2.36 1.968l-1.016 5.6A2.4 2.4 0 0 0 6.4 14.4h3.648L9.6 15.544A3.304 3.304 0 0 0 12.712 20a.8.8 0 0 0 .728-.472l2.28-5.128h1.88A2.4 2.4 0 0 0 20 12V6.4A2.4 2.4 0 0 0 17.6 4Zm-3.2 9.432-2.176 4.896a1.703 1.703 0 0 1-1.104-2.224l.424-1.144a1.602 1.602 0 0 0-1.497-2.16H6.4a.803.803 0 0 1-.616-.288.8.8 0 0 1-.184-.656l1.016-5.6a.8.8 0 0 1 .8-.656H14.4v7.832Zm4-1.432a.8.8 0 0 1-.8.8H16V5.6h1.6a.8.8 0 0 1 .8.8V12Z" class="Vector"/>
  </g>
</svg>
