<svg xmlns="http://www.w3.org/2000/svg" width="24" height="24" fill="none" viewBox="0 0 24 24">
  <g class="Basic / Heart">
    <path fill="#6563FF" d="m12 20-.487.874a1 1 0 0 0 .974 0L12 20Zm0-12.838-.92.391a1 1 0 0 0 1.84 0l-.92-.39ZM2 8.972c0 3.474 2.56 6.49 4.835 8.516a29.62 29.62 0 0 0 4.645 3.367l.023.013.007.004a.077.077 0 0 1 .003.001L12 20l.487-.873-.003-.002-.016-.01a9.69 9.69 0 0 1-.337-.198 27.65 27.65 0 0 1-3.965-2.922C5.94 14.012 4 11.515 4 8.972H2Zm10.92-2.2c-1.18-2.78-3.873-4.067-6.313-3.715a5.17 5.17 0 0 0-3.248 1.79C2.499 5.872 2 7.27 2 8.972h2c0-1.304.376-2.225.891-2.84a3.17 3.17 0 0 1 2.002-1.096c1.56-.225 3.368.59 4.187 2.517l1.84-.782Zm7.08 2.2c0 2.542-1.94 5.04-4.165 7.023a27.652 27.652 0 0 1-4.303 3.12l-.016.01-.003.001L12 20a154.744 154.744 0 0 0 .488.873l.002-.001.007-.004.023-.013a15.49 15.49 0 0 0 .384-.226 29.615 29.615 0 0 0 4.261-3.14C19.44 15.461 22 12.445 22 8.971h-2Zm-7.08-1.419c.82-1.926 2.627-2.742 4.187-2.517a3.17 3.17 0 0 1 2.002 1.097c.515.614.891 1.535.891 2.84h2c0-1.704-.499-3.1-1.359-4.126a5.17 5.17 0 0 0-3.248-1.79c-2.44-.352-5.132.935-6.313 3.714l1.84.782Z" class="Vector"/>
  </g>
</svg>
