<svg width="24" height="24" viewBox="0 0 24 24" fill="none" xmlns="http://www.w3.org/2000/svg">
<path d="M5.81576 8.93778C5.81576 5.52036 8.58612 2.75 12.0035 2.75C15.421 2.75 18.1913 5.52036 18.1913 8.93777V13.3385C18.1913 13.4575 18.2125 13.5754 18.254 13.6869L19.3028 16.5088C19.5456 17.1621 19.0624 17.8572 18.3654 17.8572H5.64164C4.94467 17.8572 4.46147 17.1621 4.70429 16.5088L5.75311 13.6869C5.79455 13.5754 5.81576 13.4575 5.81576 13.3385V8.93778Z" stroke="#6563FF" stroke-width="2"/>
<path d="M15.1693 17.8574V18.0834C15.1693 19.8323 13.7515 21.2501 12.0026 21.2501C10.2537 21.2501 8.83594 19.8323 8.83594 18.0834V17.8574" stroke="#6563FF" stroke-width="2"/>
</svg>
