<svg xmlns="http://www.w3.org/2000/svg" width="24" height="24" fill="none" viewBox="0 0 24 24">
  <g class="Edit / List_Ordered">
    <path stroke="currentColor" stroke-linecap="round" stroke-linejoin="round" stroke-width="2" d="M10 17h10" class="Vector"/>
    <path fill="#6563FF" d="M3 15.685a1 1 0 1 0 2 0H3Zm3.676.747-.8-.6.8.6ZM4 20l-.8-.6A1 1 0 0 0 4 21v-1Zm3 1a1 1 0 1 0 0-2v2Zm-2-5.315V15.5H3v.185h2ZM5.5 15h.04v-2H5.5v2Zm.376.832L3.2 19.4l1.6 1.2 2.676-3.568-1.6-1.2ZM4 21h3v-2H4v2Zm2-5.54a.621.621 0 0 1-.124.372l1.6 1.2c.34-.453.524-1.005.524-1.572H6ZM5.54 15a.46.46 0 0 1 .46.46h2A2.46 2.46 0 0 0 5.54 13v2Zm-.54.5a.5.5 0 0 1 .5-.5v-2A2.5 2.5 0 0 0 3 15.5h2Z" class="Vector"/>
    <path stroke="currentColor" stroke-linecap="round" stroke-linejoin="round" stroke-width="2" d="M10 12h10M10 7h10M4 5l2-1v6" class="Vector"/>
  </g>
</svg>
